<svg width="176" height="363" viewBox="0 0 176 363" fill="none" xmlns="http://www.w3.org/2000/svg">
<mask id="path-1-inside-1_40_186" fill="white">
<path d="M70.0107 104.193C70.0107 119.105 82.0991 131.193 97.0107 131.193H149C163.912 131.193 176 143.282 176 158.193V336C176 350.912 163.912 363 149 363H27C12.0883 363 0 350.912 0 336V27C0 12.0883 12.0883 0 27 0H43.0107C57.9224 0 70.0107 12.0883 70.0107 27V104.193Z"/>
</mask>
<path d="M70.0107 104.193C70.0107 119.105 82.0991 131.193 97.0107 131.193H149C163.912 131.193 176 143.282 176 158.193V336C176 350.912 163.912 363 149 363H27C12.0883 363 0 350.912 0 336V27C0 12.0883 12.0883 0 27 0H43.0107C57.9224 0 70.0107 12.0883 70.0107 27V104.193Z" fill="#808490"/>
<path d="M97.0107 131.193V137.193H149V131.193V125.193H97.0107V131.193ZM176 158.193H170V336H176H182V158.193H176ZM149 363V357H27V363V369H149V363ZM0 336H6V27H0H-6V336H0ZM27 0V6H43.0107V0V-6H27V0ZM70.0107 27H64.0107V104.193H70.0107H76.0107V27H70.0107ZM43.0107 0V6C54.6087 6 64.0107 15.402 64.0107 27H70.0107H76.0107C76.0107 8.7746 61.2361 -6 43.0107 -6V0ZM0 27H6C6 15.402 15.402 6 27 6V0V-6C8.7746 -6 -6 8.7746 -6 27H0ZM27 363V357C15.402 357 6 347.598 6 336H0H-6C-6 354.225 8.7746 369 27 369V363ZM176 336H170C170 347.598 160.598 357 149 357V363V369C167.225 369 182 354.225 182 336H176ZM149 131.193V137.193C160.598 137.193 170 146.595 170 158.193H176H182C182 139.968 167.225 125.193 149 125.193V131.193ZM97.0107 131.193V125.193C85.4128 125.193 76.0107 115.791 76.0107 104.193H70.0107H64.0107C64.0107 122.419 78.7853 137.193 97.0107 137.193V131.193Z" fill="black" fill-opacity="0.1" mask="url(#path-1-inside-1_40_186)"/>
<path d="M23.2 28C23.2 27.28 23.36 26.5333 23.68 25.76C24 24.96 24.4267 24.2267 24.96 23.56C25.4933 22.8667 26.0667 22.3467 26.68 22L38.8 15V19L26.68 26V34.8L38.8 27.8V31.8L26.68 38.8V47.6L38.8 40.6V44.6L26.68 51.6C25.7467 52.1333 24.9333 52.2 24.24 51.8C23.5467 51.4 23.2 50.6667 23.2 49.6V28ZM38.8 40.6L26.68 47.6L23.2 45.6L35.32 38.6L38.8 40.6ZM38.8 27.8L26.68 34.8L23.2 32.8L35.32 25.8L38.8 27.8ZM38.8 15L26.68 22C26.0667 22.3467 25.4933 22.8667 24.96 23.56C24.4267 24.2267 24 24.96 23.68 25.76C23.36 26.5333 23.2 27.28 23.2 28V49.6C23.2 50.6667 23.5467 51.4 24.24 51.8L20.76 49.8C20.0667 49.4 19.72 48.6667 19.72 47.6V26C19.72 25.28 19.88 24.5333 20.2 23.76C20.52 22.96 20.9467 22.2267 21.48 21.56C22.0133 20.8667 22.5867 20.3467 23.2 20L35.32 13L38.8 15ZM23.2 67.4L26.68 65.4V69.4C26.68 68.68 26.84 67.9333 27.16 67.16C27.48 66.36 27.8933 65.6267 28.4 64.96C28.9333 64.2667 29.5067 63.7467 30.12 63.4L31.16 62.8C32.0933 62.2667 32.9067 62.2 33.6 62.6C34.2933 63 34.64 63.7333 34.64 64.8C34.64 64.08 34.8 63.3333 35.12 62.56C35.44 61.76 35.8533 61.0267 36.36 60.36C36.8933 59.6667 37.4667 59.1467 38.08 58.8L39.12 58.2C40.0533 57.6667 40.8667 57.6 41.56 58C42.2533 58.4 42.6 59.1333 42.6 60.2V77.8L39.12 79.8V62.2L34.64 64.8V82.4L31.16 84.4V66.8L26.68 69.4V87L23.2 89V67.4ZM39.12 62.2V79.8L35.68 77.8V60.2L39.12 62.2ZM31.16 66.8V84.4L27.68 82.4V64.8L31.16 66.8ZM41.56 58C40.8667 57.6 40.0533 57.6667 39.12 58.2L38.08 58.8C37.4667 59.1467 36.8933 59.6667 36.36 60.36C35.8533 61.0267 35.44 61.76 35.12 62.56C34.8 63.3333 34.64 64.08 34.64 64.8L31.16 62.8C31.16 62.08 31.32 61.3333 31.64 60.56C31.96 59.76 32.3867 59.0267 32.92 58.36C33.4533 57.6667 34.0267 57.1467 34.64 56.8L35.68 56.2C36.5867 55.6667 37.3867 55.6 38.08 56L41.56 58ZM23.2 67.4V89L19.72 87V65.4L23.2 67.4ZM33.6 62.6C32.9067 62.2 32.0933 62.2667 31.16 62.8L30.12 63.4C29.5067 63.7467 28.9333 64.2667 28.4 64.96C27.8933 65.6267 27.48 66.36 27.16 67.16C26.84 67.9333 26.68 68.68 26.68 69.4L23.2 67.4C23.2 66.68 23.36 65.9333 23.68 65.16C24 64.36 24.4267 63.6267 24.96 62.96C25.4933 62.2667 26.0667 61.7467 26.68 61.4L27.68 60.8C28.6133 60.2667 29.4267 60.2 30.12 60.6L33.6 62.6ZM26.68 65.4L23.2 67.4L19.72 65.4L23.2 63.4L26.68 65.4ZM26.68 98V114L33.6 110V94L37.04 92V124L33.6 126V110C33.6 110.693 33.44 111.44 33.12 112.24C32.8 113.04 32.3733 113.787 31.84 114.48C31.3067 115.147 30.7333 115.653 30.12 116L23.2 120V104C23.2 103.28 23.36 102.533 23.68 101.76C24 100.96 24.4267 100.227 24.96 99.56C25.4933 98.8667 26.0667 98.3467 26.68 98ZM33.6 110V126L30.12 124V108L33.6 110ZM37.04 92L33.6 94L30.12 92L33.6 90L37.04 92ZM33.6 94V110L30.12 108V92L33.6 94ZM33.6 110L26.68 114L23.2 112L30.12 108L33.6 110ZM26.68 98C26.0667 98.3467 25.4933 98.8667 24.96 99.56C24.4267 100.227 24 100.96 23.68 101.76C23.36 102.533 23.2 103.28 23.2 104V120L19.72 118V102C19.72 101.28 19.88 100.533 20.2 99.76C20.52 98.96 20.9467 98.2267 21.48 97.56C22.0133 96.8667 22.5867 96.3467 23.2 96L26.68 98Z" fill="url(#paint0_linear_40_186)"/>
<path d="M73.0605 164.484C73.7097 164.14 74.599 163.545 75.3034 163.706C76.3964 164.679 78.099 170.759 78.8995 172.55C80.4927 176.116 82.2473 179.564 84.1374 182.983L85.8987 182.017C85.8762 183.248 86.3798 185.003 87.6486 185.462C88.2727 185.3 88.1078 184.88 88.0734 184.291L88.4063 184.292C88.7623 184.839 88.5478 185.044 89.0332 185.575C88.3796 186.404 87.2509 187.012 86.3347 187.589C84.9116 186.579 84.6473 186.261 83.9764 184.594C83.2064 185.098 82.5927 185.507 81.8661 186.073C80.5354 184.33 79.7004 182.835 78.6481 180.915C78.2531 180.194 77.6115 178.799 77.1268 178.236C76.6927 179.645 76.3296 180.372 75.7629 181.703C78.3624 182.68 78.6825 181.164 78.6474 184.375C72.5846 185.226 72.2498 187.21 67.7928 190.346C70.1651 190.486 71.5658 190.198 73.7928 190.13C79.2685 189.962 84.7044 189.407 90.0785 190.762C91.7126 191.175 93.0733 192.397 94.2994 193.461L98.5235 197.139C101.351 199.603 102.982 201.159 107.022 200.847C108.605 200.725 109.591 200.592 111.124 200.04C113.121 201.926 114.463 204.547 116.013 206.822C116.644 207.747 117.81 209.274 118.262 210.228C119.609 213.068 121.252 215.624 122.865 218.285C123.629 219.546 124.473 221.907 124.492 223.333C124.316 226.769 123.329 229.622 123.632 233.175C123.818 233.615 123.798 233.868 123.79 234.337C123.934 234.671 124.109 234.747 124.411 234.957C125.059 235.221 126.166 235.724 126.701 236.171L126.458 236.526C125.649 236.669 125.883 236.187 124.871 236.275C124.384 236.04 123.609 235.58 123.111 235.629C122.708 236.006 122.815 235.82 122.677 236.324C120.428 237.087 117.362 238.237 116.334 240.496C114.545 244.425 112.969 248.497 111.213 252.435C109 257.398 112.95 261.932 115.157 266.177C116.192 266.328 117.215 266.603 118.236 266.852C120.515 267.408 121.852 265.452 123.855 264.387L124.178 264.487L124.287 264.902C124.865 265.043 125.073 264.137 125.757 264.02C126.23 264.238 126.099 264.186 126.437 264.64C125.75 265.599 123.495 266.771 122.364 267.514C125.723 268.656 126.616 268.349 128.299 271.564C125.183 271.943 124.053 272.332 121.219 272.876C124.09 274.073 127.585 278.221 128.862 281.094C129.402 282.308 129.386 283.192 129.191 284.445C128.573 284.364 126.202 284.065 125.751 284.073C122.008 284.146 107.891 283.571 104.804 284.688C104.603 284.697 104.452 284.84 104.28 284.961C103.907 284.914 104.045 284.967 103.741 284.614C103.531 283.691 103.49 283.841 103.89 283.187C109.002 281.497 120.025 281.658 125.686 281.934C124.078 278.686 122.395 275.813 119.454 273.612C115.759 274.897 117.121 275.301 117.477 278.761C116.441 277.067 113.455 274.73 116.12 273.138C117.337 272.41 118.419 271.858 119.725 271.308C121.122 270.011 121.868 270.159 123.353 269.883L123.302 269.687C122.072 269.225 121.504 270.009 120.347 270.131C119.442 270.227 119.03 269.881 118.066 270.163L117.038 270.316C115.96 270.553 112.359 271.767 112.096 272.905L112.193 273.14L112.453 273.235C111.037 274.04 109.311 276.765 107.984 277.914C104.787 280.683 101.405 283.196 98.1232 285.859C97.0986 286.69 95.8121 287.553 94.856 288.413C96.1345 288.026 103.341 286.604 103.603 286.396L103.832 286.412L104.045 286.026L104.244 286.012L104.499 286.298L104.669 286.233C104.849 285.872 104.841 285.703 104.871 285.313L105.226 285.096C105.755 288.202 101.571 288.463 99.4245 288.923C95.1609 289.836 91.9738 290.311 88.4684 293.074C87.3473 292.826 86.2108 292.655 85.0665 292.563C80.7393 294.593 76.1954 295.737 71.7377 297.36C69.1811 298.293 67.0515 298.929 64.3498 299.41C60.8725 300.273 57.4242 301.315 53.9853 302.313C53.0749 302.578 49.48 303.975 48.7684 303.807C48.3346 303.387 48.4468 303.42 48.2533 302.765C48.3459 301.841 47.9412 300.852 48.3064 300.203L48.6259 300.129C48.7546 300.58 48.7749 301.007 49.0848 301.217C50.0537 300.42 52.3086 297.086 53.0628 297.015C53.5327 298.325 52.0158 299.852 52.1245 300.47C52.4173 300.462 52.4328 300.434 52.6845 300.26C53.286 300.296 53.4053 300.287 53.9317 300.575L54.059 300.813C53.8257 301.134 53.8035 301.065 53.3829 301.213C52.8294 301.523 52.5702 301.496 51.9311 301.523C51.5559 301.726 51.6767 301.597 51.5044 302.051C51.9073 302.187 52.2902 301.901 52.7662 301.827C53.4544 301.724 53.7718 301.666 54.4329 301.463C55.0694 301.383 55.986 301.373 56.4761 301.048C56.9847 300.673 57.1858 300.656 57.808 300.537C58.5406 300.069 61.2015 299.481 62.1169 299.333C62.2188 299.303 62.3023 299.221 62.3978 299.149L62.3614 298.812L62.5117 299.145C62.8541 299.161 62.7194 299.185 63.0262 299.013C63.7374 298.823 64.5081 298.663 65.2296 298.5C66.0924 298.22 67.5437 297.919 68.4772 297.69L68.6408 297.679C69.2706 296.965 68.4051 297.227 69.0552 296.39C70.4573 296.15 71.2075 295.541 72.4412 295.209C75.4608 294.394 78.1991 293.351 81.0711 292.09C77.7409 291.382 73.593 291.33 70.1588 290.681C67.2952 290.141 64.2811 289.699 61.4032 289.289C60.7707 289.199 58.4014 289.759 57.6292 289.923C56.8699 289.137 54.1766 287.238 53.135 286.735C51.1708 285.787 47.6102 285.149 45.4 285.193C45.0877 285.199 44.1755 285.501 43.8384 285.613C43.2987 285.593 42.7592 285.567 42.2201 285.537L42.8443 285.247L42.8218 285.155C42.3544 285.073 41.5532 285.163 41.0758 285.234C40.2227 285.379 38.6054 285.458 37.9856 285.63C37.2682 285.823 37.1822 285.838 36.4568 285.784L36.3568 285.777C36.3367 285.776 36.3167 285.774 36.2967 285.772C35.1275 285.62 35.7346 285.849 35.1139 286.283C34.7256 285.863 34.2698 285.282 33.8953 284.833C36.4366 285.384 41.0116 284.966 42.2489 282.291C44.3786 277.687 39.2274 274.015 37.9332 269.79L37.9156 269.731C39.9382 266.855 40.0326 264.785 40.3981 261.344C40.5171 261.015 40.7672 260.483 41.0979 260.365L41.6187 260.773L41.7477 260.676C41.2881 259.862 40.8836 259.048 40.4384 258.23C40.1307 257.664 39.9941 257.716 39.4599 257.582C37.3649 254.072 36.7033 252.033 36.3592 248.082C36.2364 246.672 34.318 243.416 34.5273 241.703C34.6572 241.653 35.1023 241.484 35.1374 241.334C36.0065 237.663 37.0158 234.026 37.818 230.337C38.2107 228.532 38.9622 228.151 40.6044 227.697C40.1053 226.387 38.4332 221.32 39.1382 220.189C40.0983 219.637 41.7384 220.673 42.915 220.72C43.6094 220.749 44.023 220.683 44.6997 220.589C44.7414 219.599 44.7148 218.432 44.7169 217.428C44.084 217.265 43.4505 216.941 42.8536 216.663C43.136 214.976 41.8539 214.956 41.8899 213.769C42.2525 213.478 42.3043 213.578 42.8833 213.563C43.1489 213.555 43.0838 213.551 43.3049 213.447C46.5928 211.892 45.3321 207.298 46.0742 204.332C46.3972 203.068 48.0915 202.115 49.0507 201.323C53.5673 197.596 58.6375 194.88 63.7455 192.083C65.5699 191.084 65.3984 190.162 66.577 188.915C68.5366 186.84 71.1443 183.48 73.5875 182.037C72.9366 181.411 71.9911 180.704 71.9172 179.831C72.2065 178.614 74.3444 178.325 74.9472 177.326C76.738 174.36 73.2556 169.871 73.0404 166.575C73.066 165.947 73.0345 165.181 73.0605 164.484ZM102.64 257.614C101.656 252.411 101.358 249.341 104.441 244.421C104.874 243.73 106.709 241.772 106.914 241.253C108.104 238.241 108.446 232.125 107.504 229.035C107.077 227.638 106.018 225.1 105.404 223.83C104.788 222.558 103.508 219.599 102.803 218.566C100.789 215.679 97.8531 212.485 94.669 210.825C91.3851 209.113 85.2798 210.358 81.5504 210.085C78.6172 209.871 75.9541 209.397 73.0416 209.421C71.0322 209.438 69.1718 209.973 67.1775 209.998C64.3832 209.917 61.2629 208.582 58.2894 209.418C57.2165 209.719 55.4244 211.68 54.6949 212.538C52.5659 215.044 49.4357 218.568 49.2986 222.088C49.1139 227.293 47.5472 232.432 45.8298 237.331C45.3088 238.817 41.3444 241.144 40.5553 243.465C39.8783 245.456 39.3696 249.217 39.9982 251.145C40.1358 251.867 39.7983 253.511 39.9027 253.776C41.1709 257.002 42.6924 260.221 44.8824 262.929C44.9985 263.072 44.9954 262.972 45.1262 263.225L45.3651 263.036C45.3666 263.037 46.2428 264.527 46.4502 264.791C47.6078 266.265 51.741 273.147 53.1756 273.755C56.2128 275.042 60.8035 277.21 64.0486 278.324C64.4949 278.477 67.0203 278.411 67.552 278.219C68.8781 277.741 70.3081 276.937 71.6552 276.356C74.0328 275.329 76.256 274.538 78.6963 273.654C83.3988 271.949 90.4798 270.003 94.8194 267.93C95.0981 267.797 102.241 258.334 102.64 257.614ZM55.7878 205.275C59.1883 204.663 61.7359 206.254 64.904 207.08C71.4872 208.796 78.3366 208.636 85.0807 208.441C87.2511 208.378 89.9519 207.225 92.2217 207.536C96.2361 208.086 99.7891 210.26 103.849 210.734C105.408 210.916 106.305 210.647 107.787 210.271C107.872 210.329 107.953 210.388 108.036 210.448C109.684 211.647 113.881 219.634 114.99 221.988L116.309 221.714C116.863 221.749 117.618 221.735 118.077 222.002C118.116 222.18 118.145 222.223 118.125 222.393C117.283 222.746 116.651 222.657 115.682 223.101C116.016 223.273 118.175 223.009 118.552 222.68C118.627 222.396 118.633 222.322 118.784 222.075C119.183 221.95 119.365 222.006 119.769 222.07C120.576 225.061 120.434 230.428 120.744 233.592C120.777 233.931 120.733 233.841 120.951 234.015C121.417 233.937 121.763 233.515 122.12 233.174C121.841 230.693 121.563 228.025 121.742 225.532C121.867 223.781 122.366 221.992 122.276 220.237C122.155 217.868 113.714 204.798 111.724 202.967C109.255 203.144 106.34 203.711 103.905 202.358C103.167 201.948 102.438 200.996 101.497 200.659C100.324 200.24 98.8307 201.549 97.7294 200.957C94.8283 199.399 92.6124 196.268 89.8186 194.688C88.8671 194.295 87.4972 194.215 86.5329 194.049C83.1542 193.469 80.0071 193.677 76.6158 193.696C73.8088 193.703 71.0023 193.608 68.2022 193.413C64.7157 193.171 64.6396 193.957 61.6793 195.503C57.9017 197.476 54.4931 199.527 50.9864 202C50.209 202.548 47.4083 204.223 46.6849 205.095C46.4255 207.3 46.7098 209.78 46.5726 212.025C46.5022 213.226 46.3926 214.416 46.276 215.606C47.1179 214.637 47.9752 213.108 48.7881 212.111C50.1036 210.498 54.1497 206.449 55.7878 205.275ZM92.3884 274.272C91.3756 274.242 89.3178 274.55 88.6881 275.399C88.7053 275.638 88.7182 275.971 88.7515 276.199C84.089 278.755 79.4275 281.418 74.6087 283.668C74.1416 283.886 73.7187 284.113 73.2714 284.369C73.4165 283.447 73.556 282.524 73.6899 281.6C73.5768 281.569 73.4632 281.54 73.3492 281.513C71.948 281.177 69.7929 281.121 68.5293 281.912L68.4633 281.954C65.1596 281.327 60.5438 278.887 57.412 277.492C55.3085 276.555 53.0454 275.576 50.9705 274.6C50.0982 272.745 47.7936 270.01 46.4543 268.344C45.8222 267.559 44.3451 266.678 43.2713 266.69C41.0559 266.715 41.2156 268.831 39.5484 270.413C42.3318 273.637 45.3537 276.542 48.2316 279.843C51.952 280.845 51.009 284.235 55.6836 285.49C56.1163 285.369 56.7366 285.098 57.1713 284.923C57.3498 285.279 57.5377 285.631 57.7349 285.978C59.1019 288.344 60.7722 287.207 62.9809 287.23C63.7315 287.238 64.6018 287.339 65.3553 287.415C68.8746 287.793 72.3819 288.274 75.8728 288.857C76.6357 288.983 81.3809 289.863 82.1128 289.819C84.4025 289.679 89.9975 288.658 92.1377 287.596C92.5132 287.41 94.5575 285.582 94.9966 285.199C96.5872 283.807 98.1962 282.437 99.8236 281.088C101.526 279.673 103.259 278.295 105.022 276.955C107.529 275.042 109.505 274.129 110.305 271.024C110.397 270.666 110.735 270.023 110.888 269.658C111.467 268.275 112.508 267.035 112.848 265.564C111.967 264.084 111.519 263.464 110.781 261.856C107.326 265.91 103.132 271.204 101.272 276.242C101.069 275.517 100.814 274.795 100.573 274.08C101.745 269.179 104.478 268.209 104.899 263.29C104.139 264.063 102.75 266.011 101.897 266.988C100.204 268.926 99.7474 269.06 97.8877 270.535C95.5579 272.384 95.1908 273.049 92.3884 274.272ZM43.0804 225.111C43.4463 224.721 43.4922 224.799 43.5436 224.36C43.1866 223.827 41.2249 223.11 40.6751 222.995C41.2355 223.899 41.6078 225.508 42.2712 225.824C42.8521 225.777 42.8404 225.667 43.0804 225.111ZM45.5063 281.467C45.7473 280.252 45.0451 279.547 44.046 278.903C44.2157 279.912 44.5985 280.473 44.7782 281.701C45.1054 281.753 45.162 281.646 45.5063 281.467ZM42.9751 229.224C41.4104 229.755 40.537 229.964 39.2301 230.985C38.7535 231.914 37.7144 237.32 37.821 238.071L37.9065 238.19C38.4354 237.385 39.3058 235.381 39.8253 234.406L40.4997 233.097C41.5264 235.553 41.1121 235.816 41.2932 238.26C44.419 235.129 47.2649 230.863 47.291 226.288C47.2945 225.664 47.506 224.374 47.2318 223.904C46.8475 223.651 46.9274 223.726 46.422 223.688C46.0174 225.169 43.9962 228.085 42.9751 229.224ZM122.957 282.743C121.992 282.847 115.618 282.859 115.539 282.9C115.781 283.474 118.462 283.204 119.199 283.235C121.762 283.18 123.581 283.16 126.144 283.333L126.167 283.176C125.131 282.408 124.077 282.862 122.957 282.743ZM114.332 224.417C113.625 223.708 112.216 222.279 111.206 222.174C111.598 223.388 112.107 224.61 112.307 225.894C112.882 229.592 112.599 233.646 112.496 237.38C112.472 238.248 112.061 240.869 112.13 241.402C112.748 241.454 113.33 240.897 113.804 240.493C114.159 240.185 114.508 239.871 114.851 239.551C115.065 238.741 115.259 238.053 115.38 237.22C115.391 236.806 115.199 236.05 115.324 235.829L118.726 233.945C118.895 232.888 118.868 231.793 118.83 230.724C118.746 228.337 118.852 225.911 118.766 223.529C117.246 223.8 115.832 224.124 114.332 224.417ZM40.8613 229.088L41.1065 228.966C40.6612 228.694 40.2664 229.09 39.8035 229.017L39.797 229.432L39.9665 229.584C40.4679 229.426 40.4745 229.303 40.8613 229.088ZM126.456 271.041C126.102 270.784 125.987 270.754 125.461 270.84C125.401 270.85 125.341 270.861 125.281 270.874C125.748 271.116 125.931 271.239 126.456 271.041ZM102.593 212.153C102.378 212.499 102.282 212.823 102.383 213.231C102.819 215.001 109.934 219.451 111.633 220.323C111.697 220.356 111.763 220.387 111.828 220.416L111.945 220.17C111.287 218.605 109.226 213.31 107.621 212.539C107.204 212.338 103.871 212.425 102.593 212.153Z" fill="#4F4B58"/>
<path d="M51.2206 229.701C52.2677 229.669 55.0034 229.388 55.6283 230.23C55.8377 231.052 56.0269 231.79 55.8951 232.668C55.4338 234.934 51.1545 233.104 50.7136 235.194C50.481 236.296 50.6264 237.926 50.5775 239.1C50.5444 239.895 50.4835 240.61 50.3798 241.406C52.3799 240.868 53.1535 240.728 55.2305 240.581L55.2324 242.403C55.2316 243.719 55.2633 245.035 55.3281 246.35C53.5254 246.288 51.6225 246.385 49.7358 246.325C49.7056 246.218 49.6776 246.11 49.6516 246.001C48.3634 240.492 49.174 237.337 49.3629 231.847C49.4251 230.04 49.3929 230.063 51.2206 229.701Z" fill="#4F4B58"/>
<path d="M81.7134 230.921C83.4699 230.444 86.4318 229.178 88.2113 229.925C89.1999 231.033 88.104 237.109 88.086 238.674C88.0575 241.148 88.0925 243.731 88.1029 246.209C82.4231 247.66 84.6644 245.427 83.4515 242.215C84.8935 241.52 85.7236 241.42 87.2851 241.213C87.2826 240.241 87.5574 234.529 87.2412 234.043C86.5757 233.521 83.6621 233.991 82.4894 233.773C82.4635 236.298 82.0556 238.863 82.2602 241.392C82.3206 242.139 82.3885 242.886 82.4596 243.632C82.3672 244.142 82.4281 244.39 82.1059 244.645L81.6372 244.579C81.628 243.929 81.5142 243.226 81.4684 242.569C81.1934 238.628 81.3374 234.847 81.7134 230.921Z" fill="#4F4B58"/>
<path d="M69.865 229.966C70.4818 230.061 70.3994 229.95 70.7607 230.326C71.1457 231.752 71.4339 233.071 69.5112 233.336C68.3706 233.493 66.8171 233.817 67.3539 235.303C67.7398 235.577 70.0773 234.735 70.8452 235.111C70.9863 235.18 71.2795 235.278 71.2959 235.438C71.4978 237.405 71.9565 245.05 71.3487 246.501C70.6122 246.873 68.6598 246.856 67.7823 246.885C67.3736 246.326 67.2128 243.511 67.1247 242.678C68.1531 242.736 69.759 242.656 70.8257 242.64C70.8631 241.56 71.1248 239.904 70.1979 239.153C68.945 238.661 68.0723 240.164 67.0627 239.563C66.3961 238.495 66.3153 232.251 66.2198 230.551L69.865 229.966Z" fill="#4F4B58"/>
<path d="M64.8523 232.605C65.0713 234.302 65.0446 244.67 64.2812 245.523C64.0306 245.487 63.7107 245.37 63.6063 245.366C62.7945 245.331 59.6459 246.062 59.2307 245.143C57.8253 242.032 58.0819 235.472 58.6414 232.443C58.7006 232.129 58.7671 231.817 58.8407 231.506C59.8501 235.812 59.1905 237.239 59.2543 241.582C60.7023 241.311 62.4748 241.161 63.7916 240.833C63.9192 239.172 64.0675 237.463 64.1443 235.802C64.5252 235.439 64.2396 233.279 64.8523 232.605Z" fill="#4F4B58"/>
<path d="M91.7433 231.125C92.0436 230.541 92.6938 230.09 93.253 229.962C94.3626 229.708 98.3245 229.138 99.2562 229.254C100.128 230.091 99.3046 235.051 99.1207 236.336C98.8923 237.932 99.3866 245.578 98.864 246.397L98.7007 246.494C97.6472 245.205 98.2475 235.571 98.4483 233.558C98.4836 233.223 98.526 232.89 98.5757 232.557C97.3717 232.611 97.0148 232.569 95.8302 232.509C95.7722 233.133 95.5474 235.785 95.3749 236.199C95.1876 236.994 95.3627 236.999 94.585 237.279C94.4892 235.758 94.6405 234.343 94.7863 232.837C94.1058 232.852 93.4678 232.897 92.8015 232.749C92.9345 232.123 93.101 231.881 92.6844 231.382C92.2416 231.061 92.3616 231.156 91.7433 231.125Z" fill="#4F4B58"/>
<path d="M78.596 229.151C79.1792 229.14 79.1004 229.045 79.4427 229.346C79.6516 230.08 79.5136 231.218 79.4942 232.056C78.4722 232.589 78.0897 232.595 76.9645 232.701C76.2531 235.966 76.5046 239.449 76.52 242.773C76.5239 243.611 76.9209 245.806 76.6425 246.498L76.4892 246.495C76.2889 246.143 76.2083 245.399 76.1373 244.965C75.1133 240.441 75.785 237.331 75.699 233.008C75.0671 233.144 74.5782 233.426 73.9396 233.365C73.6222 233.179 73.5086 233.131 73.385 232.733C72.6103 230.234 76.8058 229.646 78.596 229.151Z" fill="#4F4B58"/>
<path d="M91.7433 231.125C92.3616 231.156 92.2417 231.061 92.6844 231.382C92.5365 231.777 92.5887 231.932 92.6551 232.338L92.5017 232.634C92.3967 233.038 92.4079 233.353 92.3953 233.764C92.2842 237.365 92.0068 240.938 92.0971 244.545C92.122 245.539 92.1126 246.63 91.9793 247.612C90.3671 244.561 91.2893 234.696 91.7433 231.125Z" fill="#4F4B58"/>
<path d="M64.1947 230.32C64.6614 231.259 64.6885 231.576 64.8523 232.605C64.2397 233.279 64.5252 235.439 64.1444 235.802C64.0535 234.986 64.1329 231.224 64.1947 230.32Z" fill="#4F4B58"/>
<path d="M94.585 237.279C95.3627 236.999 95.1876 236.994 95.3749 236.199C95.3732 236.506 95.3854 237.149 95.3484 237.423C95.1402 238.493 95.4758 239.302 94.8965 239.754L94.585 237.279Z" fill="#4F4B58"/>
<path d="M82.4596 243.632C82.5101 244.574 82.5818 245.121 82.2634 246.002L82.084 246.15C81.7095 245.806 81.6947 245.094 81.6372 244.579L82.1059 244.645C82.4281 244.39 82.3672 244.142 82.4596 243.632Z" fill="#4F4B58"/>
<path d="M95.3485 237.423C95.3798 238.242 95.4763 239.694 95.3585 240.444L95.2063 240.517C95.0088 240.187 94.9886 240.128 94.8965 239.754C95.4758 239.302 95.1402 238.494 95.3485 237.423Z" fill="#4F4B58"/>
<path d="M92.6844 231.382C93.101 231.881 92.9345 232.123 92.8015 232.749L92.5017 232.634L92.655 232.338C92.5887 231.932 92.5364 231.777 92.6844 231.382Z" fill="#4F4B58"/>
<path d="M39.9983 251.145C41.529 255.672 43.3603 258.821 45.3651 263.036L45.1262 263.225C44.9955 262.972 44.9985 263.072 44.8824 262.929C42.6925 260.221 41.1709 257.002 39.9027 253.776C39.7984 253.511 40.1358 251.867 39.9983 251.145Z" fill="#4F4B58"/>
<path d="M122.957 282.743C124.077 282.862 125.131 282.408 126.167 283.176L126.144 283.333C123.581 283.16 121.762 283.18 119.199 283.235C118.462 283.204 115.781 283.474 115.539 282.9C115.618 282.859 121.992 282.847 122.957 282.743Z" fill="#4F4B58"/>
<path d="M88.7515 276.199C88.7182 275.971 88.7053 275.638 88.688 275.399C89.3178 274.55 91.3755 274.242 92.3884 274.272C91.1537 274.985 90.0202 275.563 88.7515 276.199Z" fill="#4F4B58"/>
<path d="M116.309 221.714C117.219 221.502 118.687 220.933 119.392 221.355C119.591 221.654 119.638 221.737 119.769 222.07C119.365 222.006 119.183 221.95 118.784 222.075C118.633 222.322 118.627 222.397 118.552 222.68L118.369 222.416L118.125 222.393C118.145 222.223 118.116 222.18 118.077 222.002C117.618 221.735 116.863 221.749 116.309 221.714Z" fill="#4F4B58"/>
<path d="M44.046 278.903C45.0451 279.547 45.7472 280.252 45.5063 281.467C45.1619 281.646 45.1054 281.753 44.7781 281.701C44.5984 280.473 44.2157 279.912 44.046 278.903Z" fill="#4F4B58"/>
<path d="M118.125 222.393L118.369 222.416L118.552 222.68C118.175 223.009 116.016 223.273 115.682 223.101C116.651 222.657 117.283 222.746 118.125 222.393Z" fill="#4F4B58"/>
<path d="M39.8035 229.017C40.2664 229.09 40.6612 228.694 41.1065 228.966L40.8613 229.088C40.4745 229.303 40.4679 229.426 39.9665 229.584L39.797 229.432L39.8035 229.017Z" fill="#4F4B58"/>
<path d="M125.281 270.874C125.341 270.861 125.401 270.85 125.461 270.84C125.987 270.754 126.102 270.784 126.456 271.041C125.931 271.239 125.748 271.116 125.281 270.874Z" fill="#4F4B58"/>
<path d="M119.529 249.603C120.962 247.369 122.563 245.278 123.794 242.904C124.011 242.485 124.342 241.833 124.827 241.81C125.179 242.542 124.972 243.884 125.224 244.625C125.721 246.091 126.795 248.578 126.189 250.127L125.842 249.94C125.738 249.525 125.804 249.507 125.52 249.243C125.11 249.75 125.424 250.371 125.696 250.857C124.639 252.528 125.705 258.986 124.92 261.277C124.32 263.029 122.682 263.817 121.149 264.632C120.797 264.488 120.332 264.337 119.965 264.208C119.086 261.514 119.266 256.629 119.026 253.615C118.962 252.807 119.539 250.907 119.529 249.603ZM121.045 262.127C121.743 261.654 123.261 260.68 123.852 260.161C123.95 257.951 123.816 255.727 123.945 253.542C124.034 252.037 124.593 250.309 124.655 248.786C124.961 248.434 125.284 248.136 125.387 247.687C125.301 247.359 125.275 247.225 124.894 247.115C123.609 248.402 121.369 251.29 120.765 252.964C120.482 253.747 120.605 261.779 120.793 262.051L121.045 262.127Z" fill="#4F4B58"/>
<path d="M125.696 250.857C125.424 250.371 125.11 249.75 125.52 249.243C125.804 249.507 125.738 249.525 125.842 249.94L126.189 250.127C126.03 250.429 125.953 250.631 125.696 250.857Z" fill="#4F4B58"/>
<path d="M137.939 185.809C143.108 183.255 143.259 174.943 144.815 174.588C145.477 176.166 142.796 180.461 143.855 181.793C144.859 181.823 145.692 180.739 146.246 179.986C146.355 180.53 146.532 181.351 146.478 181.886C146.2 184.646 146.299 187.386 146.186 190.145C145.092 187.287 145.313 186.131 145.508 183.093C144.995 183.444 144.391 183.934 143.798 184.037C142.963 183.768 142.952 182.896 142.742 182.086C141.971 186.376 138.955 188.71 134.658 188.868C134.586 191.576 135.608 192.597 137.543 190.046C137.699 193.049 137.236 197.839 136.023 200.549C134.551 199.454 131.164 198.249 129.7 199.769C128.929 200.568 131.075 203.752 131.526 204.708C133.074 205.536 133.796 206.065 135.022 207.351C133.827 207.818 130.843 210.527 130.847 211.685C130.249 211.887 130.322 211.759 130.033 212.197C130.221 212.929 131.206 212.783 131.808 212.725L132.461 212.656L133.057 213.261C129.331 213.984 128.801 212.359 127.923 209.156C127.773 208.61 127.162 207.952 127.1 207.312C126.98 206.07 127.197 204.775 126.708 203.601C125.715 200.946 124.381 199.639 122.518 197.592C122.527 197.212 122.41 197.037 122.252 196.691L122.452 196.307C124.053 197.317 126.394 200.129 127.837 201.651C128.324 198.776 129.521 195.93 130.005 193.179C130.578 189.919 131.013 187.5 131.881 184.303C133.693 185.963 135.56 185.706 137.939 185.809ZM130.413 196.437C132.213 196.268 132.931 196.361 134.725 196.929C135.147 197.141 135.533 197.333 135.941 197.571L136.329 195.002C135.364 194.831 135.148 194.836 134.461 194.051C133.27 192.69 134.632 189.309 133.197 188.9C133.13 188.881 132.654 188.843 132.573 188.838C131.96 191.016 131.084 194.357 130.413 196.437Z" fill="#4F4B58"/>
<path d="M102.867 177.49C104.877 178.924 106.815 180.397 108.361 182.338C108.955 183.084 110.043 184.666 110.797 185.061C111.552 184.834 111.529 183.879 112.093 183.168C112.629 183.24 112.598 183.992 113.363 184.077C114.96 184.255 116.655 182.669 117.876 181.813C119.259 180.835 120.685 179.918 122.149 179.066C126.742 176.361 131.614 174.226 136.561 172.258C138.749 171.387 140.352 170.857 142.279 169.485C143.732 169.776 143.365 169.861 144.188 170.996C142.634 172.344 133.467 176.222 131.274 177.231C127.833 178.793 124.5 180.581 121.296 182.585C119.56 183.683 117.897 184.87 116.076 185.829C114.189 186.823 113.704 186.609 112.486 184.975C112.449 184.925 112.413 184.876 112.376 184.826C112.095 185.641 111.715 186.45 111.364 187.24C112.596 189.247 113.87 190.29 116.088 191.175C116.631 191.391 117.638 191.734 118.117 191.997C117.907 195.03 117.517 198.021 117.409 201.071C117.376 202.008 117.807 203.258 117.57 203.951C117.22 204.204 116.901 204.19 116.475 204.223C115.354 203.463 116.365 196.016 116.458 194.408C115.463 193.685 114.497 192.978 113.337 192.554C112.993 192.429 112.654 192.308 112.335 192.125C112.525 191.814 112.399 191.923 112.709 191.769C112.811 191.339 112.844 191.486 112.656 191.174L112.053 191.074C111.75 191.224 111.628 191.223 111.288 191.275C110.902 189.693 110.771 188.681 110.616 187.059C109.754 186.431 108.749 185.074 107.978 184.264C106.606 182.824 104.794 180.892 103.191 179.739C103.269 182.731 102.913 183.539 105.762 184.806C106.047 185.888 106.543 190.409 104.852 190.115C104.434 189.752 104.305 188.969 104.152 188.406L104.802 186.688C103.033 184.793 102.585 182.657 102.221 180.13C102.257 179.581 102.299 179.396 102.436 178.86C102.78 178.048 102.205 178.138 102.867 177.49Z" fill="#4F4B58"/>
<path d="M142.279 169.485C143.587 168.765 146.847 166.129 148.245 165.115C148.752 166.047 149.3 167.021 149.537 168.07C149.759 169.056 148.959 170.893 149.534 171.634C151.124 171.664 152.365 168.539 153.779 168.324C154.207 168.628 154.362 169.271 154.442 169.759C154.69 171.238 154.158 173.39 153.928 174.9C153.054 180.662 150.174 192.422 146.83 197.034L146.795 197.081C146.209 196.279 146.81 196.4 146.427 195.903C145.752 196.505 145.369 197.479 144.778 197.72C144.412 197.095 144.053 196.821 143.52 196.345C143.496 200.997 143.556 200.603 146.718 203.842L146.636 206.808C146.13 207.231 145.889 207.421 145.319 207.767C144.537 208.242 142.608 208.604 142.252 209.344C142.379 210.163 142.87 212.124 142.401 212.698C141.75 213.497 140.296 213.347 139.722 213.89C139.938 214.409 140.376 214.602 140.874 214.891C141.083 215.484 141.541 216.44 141.264 217.016C140.724 216.861 140.618 216.589 140.061 216.587C139.716 216.904 139.348 217.238 139.004 217.547C138.519 217.981 137.987 217.762 137.872 218.203C137.51 218.28 137.437 218.324 137.096 218.226C136.725 217.449 136.804 217.518 135.997 217.428C137.406 216.758 138.367 216.249 139.715 215.477C139.072 214.57 138.849 214.329 138.452 213.27C139.021 210.6 141.668 212.558 140.419 208.933C140.313 208.623 140.191 207.171 140.151 206.742C141.75 206.077 142.776 205.41 144.553 204.776L144.508 204.719C142.634 202.29 142.82 198.192 143.189 195.295C143.946 196.04 144.166 196.167 145.064 196.686C145.659 194.722 146.97 192.516 147.76 190.384C149.988 184.378 151.431 178.716 152.719 172.464C152.507 172.725 152.287 172.98 152.06 173.228C148.935 176.608 148.071 170.429 148.055 168.42C147.135 169.171 145.249 170.31 144.188 170.996C143.365 169.861 143.732 169.776 142.279 169.485Z" fill="#4F4B58"/>
<path d="M133.089 212.515C133.565 212.62 133.203 212.209 134.086 212.479C134.603 213.493 135.162 216.613 135.687 217.425C135.901 217.462 135.839 217.492 135.997 217.428C136.804 217.518 136.725 217.449 137.096 218.226C137.437 218.324 137.51 218.281 137.872 218.203C137.912 218.725 137.929 218.819 137.758 219.325C137.483 220.114 137.355 220.982 138.101 221.484C139.419 221.652 140.891 220.223 142.056 219.705L143.645 221.137C143.447 221.417 143.081 221.782 142.752 221.883L142.692 222.013C140.248 223.94 137.355 225.76 135.419 228.201C134.319 229.588 133.028 233.399 131.596 234.353L131.478 234.246C131.668 232.519 134.514 228.067 134.228 227.173C132.579 226.185 126.173 233.358 124.42 234.6C124.281 234.512 124.218 234.427 124.103 234.308C124.181 234.007 124.206 233.908 124.218 233.596L124.22 233.528L124.627 233.303C125.431 233.374 125.773 232.058 126.961 231.451C127.153 231.318 128.922 229.682 129.081 229.507C129.058 228.84 129.093 228.702 129.649 228.361C131.223 227.394 131.969 227.047 133.256 225.681C133.296 225.07 133.282 224.9 133.197 224.292C133.976 224.172 134.958 223.853 135.732 223.629C134.778 222.791 133.762 221.671 134.507 220.497C135.297 219.252 134.511 213.642 133.434 213.052L133.057 213.261L132.461 212.656L133.089 212.515Z" fill="#4F4B58"/>
<path d="M126.701 236.171C127.325 236.627 127.73 237.25 127.86 238.017C128.088 239.375 127.496 240.786 127.745 242.129C128.154 244.328 130.437 242.514 129.201 248.408C129.841 247.901 131.398 246.504 132.075 246.506C132.284 246.533 132.385 246.549 132.601 246.54C132.918 246.86 132.817 246.849 133.195 246.952L133.412 246.857L133.502 246.975C132.973 248.914 131.429 250.941 130.558 252.748C129.594 254.747 128.547 256.904 127.672 258.934C127.439 259.063 127.243 259.105 127.198 259.291C126.796 260.972 127.18 263.054 126.437 264.64C126.099 264.186 126.23 264.238 125.757 264.02C125.073 264.137 124.865 265.043 124.287 264.902L124.178 264.487L123.855 264.387C123.94 264.294 125.698 263.299 126.011 263.081C126.189 257.264 127.032 251.487 128.524 245.862L127.514 245.06C126.9 242.728 127.112 240.956 127.102 238.523C126.342 238.248 126.048 238.14 125.348 237.718C125.96 237.684 126.252 237.936 127.021 237.913L126.932 237.635L126.55 237.565C126.713 237.348 126.702 237.364 126.74 237.095C126.503 236.867 125.516 236.64 124.871 236.275C125.883 236.187 125.649 236.669 126.458 236.526L126.701 236.171ZM129.225 250.276C129.344 249.877 129.545 249.417 129.436 249.047L129.194 248.944C129.128 249.35 128.978 249.931 129.117 250.279L129.225 250.276Z" fill="#4F4B58"/>
<path d="M129.194 248.944L129.436 249.047C129.545 249.417 129.344 249.877 129.225 250.276L129.117 250.279C128.978 249.931 129.128 249.35 129.194 248.944Z" fill="#4F4B58"/>
<path d="M50.1952 183.892L50.3518 183.399C51.5465 184.062 51.0084 184.478 52.6467 184.461L52.6132 184.807C53.7368 186.077 55.8274 187.343 55.8484 189.287C55.8671 191.036 52.9131 191.295 52.0832 192.012C51.6181 192.414 51.2531 194.964 50.9365 195.584C50.4232 196.879 47.2197 201.745 45.8644 201.831C45.7413 201.703 45.6405 201.619 45.5669 201.457C45.5803 201.546 44.7037 199.398 44.6157 199.1C46.3678 198.64 49.7051 193.881 50.0358 192.013C50.1672 191.271 49.634 189.125 50.1193 188.698L50.6779 188.944C51.473 188.774 51.9584 188.485 51.9627 187.557C51.9709 185.835 51.2873 185.073 50.1952 183.892Z" fill="#4F4B58"/>
<path d="M143.645 221.137C144.54 221.9 144.936 224.166 144.473 225.254C143.849 226.717 143.124 228.167 142.416 229.593C141.047 232.324 139.664 235.048 138.265 237.764C137.114 240.006 134.721 245.048 133.502 246.975L133.412 246.857L133.195 246.952C132.817 246.849 132.918 246.86 132.601 246.54C132.385 246.549 132.284 246.533 132.075 246.506C132.843 244.487 134.19 241.969 135.188 239.99L140.98 228.602C141.599 227.367 143.921 223.468 143.428 222.38C143.042 222.027 143.23 222.13 142.692 222.013L142.751 221.883C143.081 221.782 143.447 221.417 143.645 221.137Z" fill="#4F4B58"/>
<path d="M57.7111 183.178C58.6894 181.436 59.2437 179.414 60.1422 177.487C62.6027 172.213 67.9534 167.22 73.0604 164.484C73.0345 165.181 73.066 165.947 73.0404 166.575C72.8378 166.028 72.9553 166.089 72.5433 165.816C71.2462 165.976 65.4125 172.354 64.5973 173.463C62.5536 176.246 61.0917 179.672 59.6591 182.801C59.5301 183.083 58.9503 183.602 58.6885 183.787C58.386 183.754 58.2023 183.726 57.9056 183.66L57.7111 183.178Z" fill="#4F4B58"/>
<path d="M40.4809 289.4C42.2668 290.291 43.5475 291.101 44.7427 292.755C45.3999 292.82 45.8246 292.713 46.3469 292.999C46.4213 293.593 45.6078 294.162 45.5893 294.855C44.4794 295.443 42.3989 296.327 42.0215 297.57C41.9601 297.772 42.0282 298.499 42.0559 298.75C41.9549 299.459 42.0827 299.346 41.6529 299.762C40.6694 296.972 41.0213 292.459 39.8196 290.754C39.9736 290.291 40.1079 289.659 40.4809 289.4Z" fill="#4F4B58"/>
<path d="M37.9269 202.68C38.2193 202.706 38.8936 202.722 39.0936 202.874C40.1312 204.841 42.4244 205.089 43.9467 206.186C44.04 206.253 44.1672 207.096 44.199 207.299C43.5239 208.761 41.8824 211.49 42.0969 212.945C42.3874 213.389 42.3664 213.286 42.8833 213.563C42.3043 213.578 42.2525 213.478 41.8898 213.769C41.8539 214.956 43.136 214.976 42.8535 216.663C42.6729 216.487 42.4287 215.861 42.2575 215.599C40.5873 213.043 41.0506 210.612 42.214 207.909L42.1473 207.881C40.2577 207.087 39.1536 206.479 38.4546 204.44C38.254 203.854 38.2234 203.386 37.9665 202.773L37.9269 202.68Z" fill="#4F4B58"/>
<path d="M111.205 288.583C110.72 288.187 109.889 287.473 109.333 287.292C108.419 286.993 107.291 287.295 107.394 285.852C108.137 284.812 113.746 285.207 114.937 285.462C114.32 285.471 113.574 285.398 113.087 285.747C112.356 285.759 110.758 285.751 110.141 286.005C110.974 286.35 113.361 286.155 114.397 286.182L114.72 286.142C114.932 285.977 115.025 285.871 115.291 285.831L115.254 286.016C115.799 286.261 117.173 286.273 117.85 286.31C117.057 286.414 115.018 286.554 114.452 286.694C113.304 286.696 112.02 286.67 110.884 286.71C111.688 287.351 112.469 288.503 112.708 288.639L112.839 289.145C113.461 289.597 114.069 289.48 114.722 289.092C115.725 288.508 116.726 288.921 117.407 287.992L117.56 287.831C118.238 288.25 119.47 287.749 120.144 287.49C120.775 287.044 120.875 287.777 121.906 287.78C120.281 288.364 118.19 288.847 116.501 289.345C115.079 289.764 113.302 290.362 111.891 290.676C111.294 290.278 111.287 289.26 111.205 288.583Z" fill="#4F4B58"/>
<path d="M149.332 196.532C150.985 196.168 153.434 194.926 153.819 193.139C154.133 194.084 154.145 193.405 154.345 193.937L153.997 193.998C153.717 194.451 153.422 194.895 153.112 195.329L153.053 195.422C152.189 196.766 151.178 196.673 151.314 197.666C151.614 197.991 151.755 198.102 152.093 198.363C152.135 198.856 152.105 199.318 152.402 199.68C152.917 199.242 153.592 196.198 153.823 195.33L154.191 194.378C154.223 194.891 154.441 196.068 154.76 196.431C153.994 199.365 152.603 201.576 151.36 204.292C151.349 202.119 151.308 201.109 149.913 199.186C149.493 198.606 149.046 198.204 148.729 197.55C148.749 197.138 149.052 196.871 149.332 196.532Z" fill="#4F4B58"/>
<path d="M42.056 298.75L42.1073 298.881C42.4593 299.793 42.6832 301.733 43.2406 302.009L43.468 301.813L43.5732 302.441C43.9306 302.68 44.1638 302.635 44.6004 302.639L44.6078 302.468C45.0908 301.842 45.8935 301.757 46.0701 301.3C45.5721 301.237 45.1836 301.432 44.7107 301.608C43.8547 302.029 44.3089 301.753 43.468 301.813C43.8356 300.88 46.9066 298.832 48.0379 299.084C48.3844 299.311 48.4696 299.716 48.6259 300.129L48.3065 300.203C47.9412 300.852 48.3459 301.841 48.2533 302.765C48.1127 302.446 47.9877 301.944 47.8882 301.597C47.0055 301.097 43.9257 304.185 43.3731 304.935C42.2026 303.232 42.0339 301.735 41.653 299.762C42.0828 299.346 41.9549 299.459 42.056 298.75Z" fill="#4F4B58"/>
<path d="M33.2844 203.059C33.7315 202.691 33.5527 202.743 34.094 202.656C34.6318 202.796 34.9551 203.063 35.3533 203.451C35.5315 205.746 35.1238 207.092 34.7951 209.307C34.7175 209.83 34.8578 210.745 34.6013 211.182C34.3663 211.131 34.4312 211.194 34.3217 211.053C34.3306 209.067 34.2096 210.036 33.2771 208.84L32.8511 208.662C32.4611 207.407 32.8088 206.224 32.9874 204.922C33.0317 204.097 33.5892 203.805 33.6038 203.174L33.2844 203.059Z" fill="#4F4B58"/>
<path d="M90.2133 183.541C91.8122 183.281 93.4073 182.393 95.1647 182.3C97.322 182.185 96.6735 182.396 97.9935 183.417C98.2082 184.017 98.2622 184.158 98.3209 184.787L98.522 184.97C97.7341 185.233 97.2224 184.39 96.6581 183.827C95.1363 183.847 89.9703 184.55 89.0332 185.575C88.5478 185.044 88.7623 184.839 88.4063 184.292L88.0734 184.291L88.136 184.128C88.327 183.634 88.5008 182.994 88.9636 182.789C89.3019 183.122 89.2443 183.257 89.3867 183.79C90.0345 184.23 89.678 184.284 90.5362 184.49C91.0146 184.397 90.8348 184.48 91.2158 184.161L91.0998 184.004C90.5139 183.999 90.397 184.07 90.2133 183.541ZM93.8973 183.419C94.6113 183.409 95.5563 183.459 96.1954 183.2L96.2261 183.061C95.4043 182.803 94.6956 182.911 93.8366 182.984L93.7301 183.041C92.8923 183.483 92.6533 183.241 91.8883 183.674L91.8654 183.778C93.3479 183.97 93.0628 183.633 93.8973 183.419Z" fill="#4F4B58"/>
<path d="M93.8366 182.984C94.6956 182.911 95.4043 182.803 96.2261 183.061L96.1955 183.2C95.5563 183.459 94.6113 183.409 93.8973 183.419C93.0628 183.633 93.3479 183.97 91.8654 183.778L91.8883 183.674C92.6533 183.241 92.8923 183.483 93.7301 183.041L93.8366 182.984Z" fill="#4F4B58"/>
<path d="M124.012 232.944C125.12 231.271 131.439 225.227 133.197 224.292C133.282 224.9 133.296 225.07 133.256 225.68C131.969 227.047 131.223 227.394 129.649 228.361C129.093 228.702 129.058 228.84 129.081 229.507C128.921 229.682 127.153 231.318 126.961 231.451L126.752 231.159C126.075 231.359 124.865 232.616 124.627 233.303L124.22 233.528L124.012 232.944Z" fill="#4F4B58"/>
<path d="M50.1952 183.892C49.9066 183.348 49.5418 182.963 49.885 182.427C51.1841 181.847 55.438 184.082 57.0337 184.316C57.3814 184.094 57.532 183.586 57.7111 183.178L57.9056 183.66C58.2023 183.726 58.386 183.754 58.6885 183.787C55.8848 186.331 56.273 185.876 52.6467 184.461C51.0085 184.478 51.5465 184.062 50.3518 183.399L50.1952 183.892ZM56.643 184.902C56.1323 184.538 51.9034 183.2 51.1801 183.08C51.4725 183.569 51.7015 183.769 52.3012 183.858C53.58 184.05 55.4494 185.236 56.643 184.902Z" fill="#4F4B58"/>
<path d="M51.1801 183.08C51.9033 183.2 56.1323 184.539 56.643 184.902C55.4494 185.236 53.58 184.05 52.3011 183.858C51.7014 183.769 51.4724 183.569 51.1801 183.08Z" fill="#4F4B58"/>
<path d="M116.102 285.761C118.051 285.734 120.057 286.042 121.887 285.825C121.981 286.318 122.202 287.151 122.078 287.593L121.906 287.78C120.875 287.777 120.775 287.044 120.144 287.49C119.332 287.489 118.194 287.37 117.56 287.831L117.407 287.992C116.31 288.127 115.514 288.319 114.455 288.66L114.35 288.803C113.806 289.109 113.468 289.094 112.839 289.145L112.708 288.639C114.193 288.057 115.71 287.51 117.179 286.931C117.413 286.751 118.346 286.674 118.831 286.548C118.626 286.345 118.164 286.346 117.85 286.31C117.173 286.273 115.799 286.261 115.254 286.016L115.291 285.831L116.102 285.761Z" fill="#4F4B58"/>
<path d="M50.7421 291.623C50.1195 290.879 49.7685 290.096 49.5831 289.138L49.734 289.102C50.5317 289.78 50.9392 290.776 51.8771 291.085C52.5351 291.302 52.6261 292.602 52.917 293.276C52.7428 293.203 51.9142 292.864 51.7742 292.871C50.1179 292.958 48.3772 293.331 46.7945 293.829C46.3087 293.982 46.2109 294.531 45.5893 294.855C45.6078 294.162 46.4213 293.593 46.347 292.999C45.8246 292.713 45.3999 292.82 44.7427 292.755C46.3655 292.493 49.3485 291.654 50.7421 291.623Z" fill="#4F4B58"/>
<path d="M41.0758 285.234C41.5532 285.163 42.3544 285.073 42.8218 285.155L42.8443 285.247L42.22 285.537C42.7592 285.567 43.2987 285.593 43.8384 285.613C42.1292 286.418 38.7541 286.676 36.8352 286.652C38.5304 288.036 38.4404 288.454 40.4809 289.4C40.1079 289.659 39.9736 290.291 39.8196 290.754C38.166 288.605 36.6817 287.863 35.1138 286.283C35.7345 285.849 35.1274 285.62 36.2967 285.772L36.4165 286.06C36.815 286.221 39.1312 285.904 39.8042 285.849C40.3294 285.763 40.4699 285.736 40.968 285.543L41.0758 285.234Z" fill="#4F4B58"/>
<path d="M33.2844 203.059L33.6039 203.174C33.5892 203.805 33.0318 204.097 32.9875 204.922C31.4978 205.015 30.8784 205.068 29.3823 204.836C30.0835 205.732 31.7971 208.278 32.5539 208.747L32.8511 208.662L33.2772 208.84C33.1232 209.492 33.0408 209.422 33.3349 210.03L33.3161 210.198C32.2511 209.961 28.4772 205.443 28.4169 204.293C28.6747 204.012 29.1651 204.123 29.6014 204.1C31.0158 204.024 31.9991 203.626 33.2844 203.059Z" fill="#4F4B58"/>
<path d="M100.931 178.257C101.306 177.964 101.531 177.825 101.934 177.583C101.907 178.367 101.486 178.459 101.558 179.111C102.019 179.026 101.666 178.873 102.093 178.947L102.436 178.86C102.299 179.396 102.257 179.581 102.221 180.13L101.985 179.721C100.936 179.638 99.0994 184.014 98.522 184.97L98.3209 184.787C98.2622 184.158 98.2082 184.017 97.9935 183.417C98.811 181.522 99.7659 179.949 100.931 178.257Z" fill="#4F4B58"/>
<path d="M118.066 270.163C119.03 269.881 119.442 270.227 120.347 270.131C121.504 270.009 122.072 269.225 123.302 269.687L123.353 269.884C121.868 270.159 121.122 270.011 119.725 271.308C118.235 270.42 113.803 272.391 112.453 273.235L112.193 273.14L112.096 272.905C112.359 271.767 115.96 270.553 117.038 270.316L117.241 270.537C117.909 270.504 118.776 270.508 119.387 270.289C118.983 270.085 118.528 270.149 118.066 270.163Z" fill="#4F4B58"/>
<path d="M42.9356 199.651C43.5429 199.411 43.9855 199.278 44.6156 199.1C44.7037 199.398 45.5803 201.546 45.5668 201.457C44.9293 201.316 41.7158 202.524 40.8387 202.695C40.1939 202.821 39.6318 202.797 39.0936 202.874C38.8936 202.722 38.2193 202.706 37.9269 202.68C38.0056 202.227 38.1486 201.829 38.4116 201.452C38.8078 201.591 38.9514 201.625 39.3661 201.692C39.0434 201.758 38.8198 201.798 38.5912 202.027C39.1313 202.296 40.5423 202.131 41.077 201.859L40.9804 201.714L40.4218 201.62C40.9669 201.252 41.0868 201.737 41.7917 201.229C42.2764 201.511 42.2861 201.5 42.9569 201.376C43.1203 201.246 43.6877 201.107 43.9194 201.039C43.6396 200.995 43.4965 200.984 43.2135 200.974L43.25 200.706C43.6829 200.413 43.8097 200.783 44.4466 200.225L44.433 199.953C43.9156 199.721 43.4975 199.71 42.9356 199.651Z" fill="#4F4B58"/>
<path d="M56.0639 299.223C57.5483 299.025 58.9377 298.401 60.4653 298.149C61.3419 298.172 61.795 298.051 62.3613 298.812L62.3978 299.149C62.3023 299.221 62.2188 299.303 62.1169 299.333C61.5997 298.551 58.5542 299.812 57.5969 300.002C56.8599 299.796 56.538 299.794 56.0639 299.223Z" fill="#4F4B58"/>
<path d="M153.819 193.139C154.065 192.195 154.271 191.664 154.835 190.854C156.157 193.171 155.101 193.908 154.76 196.431C154.441 196.068 154.223 194.891 154.191 194.378L154.345 193.937C154.145 193.405 154.133 194.084 153.819 193.139Z" fill="#4F4B58"/>
<path d="M122.677 236.325C122.815 235.82 122.708 236.006 123.111 235.629C123.609 235.58 124.384 236.04 124.871 236.275C125.516 236.64 126.503 236.867 126.74 237.095C126.702 237.364 126.713 237.348 126.55 237.565L126.932 237.635L127.021 237.913C126.252 237.936 125.96 237.684 125.348 237.718C124.591 237.502 123.323 236.782 122.677 236.325Z" fill="#4F4B58"/>
<path d="M103.89 283.187C103.49 283.841 103.531 283.691 103.741 284.614C104.045 284.967 103.907 284.915 104.28 284.961C104.452 284.84 104.603 284.697 104.804 284.688C104.946 284.855 105.042 285.017 105.226 285.096L104.871 285.313C104.841 285.704 104.849 285.872 104.669 286.233L104.499 286.298L104.244 286.012L104.045 286.026L103.832 286.412L103.603 286.396C102.766 285.13 101.61 284.03 103.89 283.187Z" fill="#4F4B58"/>
<path d="M62.3574 297.64C63.9242 297.242 65.0462 296.942 66.6557 296.832C66.866 297.268 66.9828 297.23 67.465 297.535C66.847 297.648 65.2113 297.967 64.6499 298.154L64.2808 298.258C63.4438 298.305 62.6863 298.516 62.3574 297.64Z" fill="#4F4B58"/>
<path d="M137.872 218.203C137.987 217.762 138.519 217.981 139.004 217.547C139.348 217.238 139.716 216.904 140.061 216.587C140.618 216.589 140.724 216.861 141.264 217.016C140.581 218.037 138.862 218.852 137.758 219.325C137.929 218.819 137.912 218.725 137.872 218.203Z" fill="#4F4B58"/>
<path d="M130.847 211.685C132.705 211.292 133.102 210.672 134.086 212.479C133.203 212.209 133.565 212.62 133.089 212.515L132.983 212.24C132.416 212.061 131.725 212.123 131.187 212.371L131.137 212.549C131.431 212.656 131.499 212.675 131.808 212.725C131.206 212.783 130.221 212.929 130.033 212.197C130.322 211.759 130.249 211.887 130.847 211.685Z" fill="#4F4B58"/>
<path d="M38.4117 201.452C39.5371 200.946 40.2574 200.782 41.4567 200.169C41.8014 200.505 42.0734 200.86 42.5376 200.907C42.7674 200.844 43.027 200.782 43.25 200.706L43.2135 200.974C43.4965 200.984 43.6396 200.995 43.9195 201.039C43.6878 201.107 43.1204 201.246 42.957 201.376L42.9288 201.163C42.4854 200.97 42.3733 201.103 41.7917 201.229C41.0869 201.737 40.967 201.252 40.4219 201.62C39.9712 201.737 39.8367 201.795 39.3661 201.692C38.9515 201.625 38.8079 201.591 38.4117 201.452Z" fill="#4F4B58"/>
<path d="M52.6845 300.26L54.3698 299.738C54.9777 299.794 55.7757 299.833 56.1977 300.29C56.0288 300.443 55.9997 300.493 55.7843 300.575C55.2748 300.629 55.1552 300.553 54.8133 300.834C55.283 301.213 55.794 301.063 56.3376 300.96L56.4761 301.048C55.986 301.373 55.0694 301.383 54.4329 301.463C53.9224 301.122 54.0737 301.222 53.3829 301.213C53.8034 301.065 53.8256 301.134 54.0589 300.813L53.9317 300.575C53.4052 300.287 53.286 300.296 52.6845 300.26Z" fill="#4F4B58"/>
<path d="M144.778 197.72C145.369 197.479 145.752 196.505 146.427 195.903C146.81 196.4 146.209 196.279 146.795 197.081C146.551 197.564 145.936 198.3 145.396 198.478C144.934 198.373 144.893 198.211 144.778 197.72Z" fill="#4F4B58"/>
<path d="M41.4567 200.169C41.9374 200.06 42.471 199.832 42.9357 199.651C43.4976 199.71 43.9157 199.721 44.433 199.953L44.4466 200.225C43.8097 200.783 43.6829 200.413 43.25 200.706C43.027 200.782 42.7674 200.844 42.5376 200.907C42.0733 200.86 41.8014 200.505 41.4567 200.169Z" fill="#4F4B58"/>
<path d="M54.3698 299.738C54.9001 299.621 55.5371 299.394 56.0639 299.223C56.538 299.794 56.8599 299.796 57.5969 300.002L57.1591 300.243L57.2368 300.412L57.808 300.537C57.1858 300.656 56.9847 300.673 56.4761 301.048L56.3376 300.96C56.1697 300.695 56.0936 300.696 55.7843 300.575C55.9997 300.493 56.0288 300.443 56.1977 300.29C55.7757 299.833 54.9777 299.794 54.3698 299.738Z" fill="#4F4B58"/>
<path d="M57.5969 300.002C58.5541 299.812 61.5997 298.551 62.1169 299.333C61.2015 299.481 58.5405 300.069 57.808 300.537L57.2368 300.412L57.1591 300.242L57.5969 300.002Z" fill="#4F4B58"/>
<path d="M39.4599 257.582C39.9941 257.716 40.1307 257.664 40.4384 258.23C40.8836 259.048 41.2881 259.862 41.7477 260.676L41.6187 260.773L41.0979 260.365C40.7671 260.483 40.517 261.015 40.398 261.344C40.3979 260.673 40.492 260.101 40.5841 259.441C40.2463 258.732 39.8921 258.229 39.4599 257.582Z" fill="#4F4B58"/>
<path d="M66.6557 296.832C67.3767 296.656 68.3101 296.52 69.0552 296.39C68.405 297.227 69.2706 296.965 68.6407 297.679L68.4772 297.69L68.4594 297.33L68.2365 297.221L67.465 297.535C66.9828 297.23 66.866 297.268 66.6557 296.832Z" fill="#4F4B58"/>
<path d="M60.4653 298.149L62.3574 297.64C62.6863 298.516 63.4438 298.305 64.2808 298.258C63.8595 298.398 63.0235 298.542 62.8132 298.733C62.9273 298.941 62.863 298.91 63.0262 299.013C62.7194 299.185 62.854 299.161 62.5117 299.145L62.3613 298.812C61.795 298.051 61.3419 298.172 60.4653 298.149Z" fill="#4F4B58"/>
<path d="M113.087 285.747C113.52 285.778 114.161 285.766 114.483 285.998L114.397 286.182C113.361 286.155 110.974 286.35 110.141 286.005C110.758 285.751 112.356 285.759 113.087 285.747Z" fill="#4F4B58"/>
<path d="M67.465 297.535L68.2365 297.221L68.4594 297.33L68.4772 297.69C67.5437 297.919 66.0924 298.22 65.2296 298.5L64.7523 298.403L64.65 298.154C65.2113 297.967 66.847 297.648 67.465 297.535Z" fill="#4F4B58"/>
<path d="M122.518 197.592C122.06 197.197 120.765 196.154 120.861 195.551L121.262 195.646L120.851 195.565L120.836 195.602C121.479 195.625 121.851 195.961 122.452 196.307L122.252 196.691C122.41 197.037 122.527 197.212 122.518 197.592Z" fill="#4F4B58"/>
<path d="M33.2772 208.84C34.2097 210.036 34.3307 209.067 34.3218 211.053C34.1001 210.81 33.5898 210.419 33.3161 210.198L33.3349 210.03C33.0408 209.422 33.1232 209.492 33.2772 208.84Z" fill="#4F4B58"/>
<path d="M124.627 233.303C124.865 232.616 126.075 231.359 126.752 231.159L126.961 231.451C125.773 232.058 125.431 233.374 124.627 233.303Z" fill="#4F4B58"/>
<path d="M114.35 288.802L114.455 288.66C115.514 288.319 116.31 288.127 117.407 287.992C116.726 288.921 115.725 288.508 114.722 289.092C114.643 289.012 114.449 288.877 114.35 288.802Z" fill="#4F4B58"/>
<path d="M111.288 191.274C111.628 191.223 111.75 191.224 112.053 191.073L112.657 191.174C112.844 191.486 112.811 191.339 112.709 191.769C112.399 191.923 112.525 191.814 112.335 192.125C111.743 191.842 111.632 191.852 111.288 191.274Z" fill="#4F4B58"/>
<path d="M117.85 286.31C118.164 286.346 118.626 286.345 118.831 286.548C118.346 286.674 117.413 286.751 117.179 286.931C116.692 286.463 115.318 286.689 114.452 286.694C115.018 286.554 117.057 286.414 117.85 286.31Z" fill="#4F4B58"/>
<path d="M44.7107 301.608C45.1836 301.432 45.5721 301.237 46.07 301.3C45.8934 301.757 45.0907 301.842 44.6077 302.468C44.3938 302.512 44.4649 302.495 44.2301 302.434C44.29 302.039 44.4396 301.962 44.7107 301.608Z" fill="#4F4B58"/>
<path d="M37.9856 285.63C38.7965 285.599 39.1709 285.465 39.8042 285.849C39.1312 285.904 36.815 286.221 36.4165 286.06L36.2967 285.772C36.3166 285.774 36.3367 285.776 36.3567 285.777L36.4567 285.784C37.1822 285.838 37.2682 285.823 37.9856 285.63Z" fill="#4F4B58"/>
<path d="M114.937 285.462L116.102 285.761L115.291 285.831C115.025 285.871 114.932 285.977 114.72 286.142L114.397 286.182L114.483 285.998C114.161 285.766 113.52 285.777 113.087 285.747C113.574 285.398 114.32 285.471 114.937 285.462Z" fill="#4F4B58"/>
<path d="M40.4219 201.62L40.9804 201.714L41.0771 201.859C40.5424 202.131 39.1313 202.296 38.5912 202.027C38.8198 201.798 39.0434 201.758 39.3661 201.692C39.8367 201.795 39.9712 201.737 40.4219 201.62Z" fill="#4F4B58"/>
<path d="M100.931 178.257C101.413 177.419 101.993 177.508 102.867 177.49C102.205 178.138 102.78 178.048 102.436 178.86L102.093 178.947C102.105 178.49 102.183 177.943 101.934 177.583C101.531 177.825 101.306 177.964 100.931 178.257Z" fill="#4F4B58"/>
<path d="M131.808 212.725C131.499 212.675 131.431 212.656 131.137 212.549L131.187 212.371C131.725 212.123 132.416 212.061 132.983 212.24L133.089 212.515L132.461 212.656L131.808 212.725Z" fill="#4F4B58"/>
<path d="M64.2808 298.258L64.6499 298.154L64.7522 298.403L65.2296 298.5C64.508 298.663 63.7374 298.823 63.0262 299.013C62.863 298.91 62.9273 298.941 62.8132 298.733C63.0235 298.542 63.8595 298.398 64.2808 298.258Z" fill="#4F4B58"/>
<path d="M89.3867 183.79C89.8589 183.813 89.7461 183.789 90.2133 183.541C90.397 184.07 90.5139 183.999 91.0998 184.004L91.2157 184.161C90.8348 184.48 91.0146 184.397 90.5362 184.49C89.678 184.284 90.0345 184.23 89.3867 183.79Z" fill="#4F4B58"/>
<path d="M117.56 287.831C118.194 287.37 119.332 287.489 120.144 287.49C119.47 287.749 118.238 288.25 117.56 287.831Z" fill="#4F4B58"/>
<path d="M123.632 233.175L124.012 232.944L124.22 233.528L124.218 233.596C124.206 233.908 124.181 234.007 124.103 234.308C124.218 234.427 124.281 234.512 124.42 234.6L124.411 234.957C124.109 234.747 123.934 234.671 123.79 234.337C123.798 233.868 123.818 233.615 123.632 233.175Z" fill="#4F4B58"/>
<path d="M53.3829 301.213C54.0738 301.222 53.9225 301.122 54.4329 301.463C53.7718 301.666 53.4544 301.724 52.7662 301.827L51.9311 301.523C52.5702 301.496 52.8294 301.523 53.3829 301.213Z" fill="#4F4B58"/>
<path d="M41.0758 285.234L40.968 285.543C40.4699 285.736 40.3294 285.763 39.8042 285.849C39.1709 285.465 38.7965 285.599 37.9856 285.63C38.6054 285.458 40.2226 285.379 41.0758 285.234Z" fill="#4F4B58"/>
<path d="M43.468 301.813C44.3089 301.753 43.8547 302.029 44.7107 301.608C44.4396 301.962 44.2901 302.039 44.2301 302.434C44.4649 302.495 44.3938 302.512 44.6077 302.468L44.6003 302.639C44.1638 302.635 43.9306 302.68 43.5732 302.441L43.468 301.813Z" fill="#4F4B58"/>
<path d="M118.066 270.163C118.528 270.149 118.983 270.085 119.387 270.289C118.776 270.508 117.909 270.504 117.242 270.537L117.038 270.316L118.066 270.163Z" fill="#4F4B58"/>
<path d="M114.35 288.802C114.449 288.877 114.643 289.012 114.722 289.092C114.069 289.48 113.461 289.597 112.839 289.145C113.468 289.094 113.806 289.109 114.35 288.802Z" fill="#4F4B58"/>
<path d="M56.3376 300.96C55.794 301.063 55.283 301.213 54.8134 300.835C55.1553 300.553 55.2748 300.629 55.7843 300.575C56.0937 300.696 56.1697 300.695 56.3376 300.96Z" fill="#4F4B58"/>
<path d="M153.112 195.329C153.422 194.895 153.717 194.451 153.997 193.998L154.345 193.937L154.191 194.378L153.823 195.33L153.737 194.982L153.602 194.919L153.112 195.329Z" fill="#4F4B58"/>
<path d="M101.934 177.583C102.183 177.943 102.105 178.49 102.093 178.947C101.666 178.873 102.019 179.026 101.558 179.111C101.486 178.459 101.907 178.367 101.934 177.583Z" fill="#4F4B58"/>
<path d="M52.7662 301.827C52.2902 301.901 51.9072 302.187 51.5043 302.051C51.6766 301.597 51.5559 301.727 51.9311 301.523L52.7662 301.827Z" fill="#4F4B58"/>
<path d="M41.7917 201.229C42.3732 201.103 42.4854 200.97 42.9288 201.163L42.9569 201.376C42.2861 201.5 42.2764 201.511 41.7917 201.229Z" fill="#4F4B58"/>
<defs>
<linearGradient id="paint0_linear_40_186" x1="29" y1="14" x2="29" y2="125" gradientUnits="userSpaceOnUse">
<stop stop-color="#7E85A0"/>
<stop offset="0.673077" stop-color="#37343C"/>
</linearGradient>
</defs>
</svg>
